<svg width="79" height="68" viewBox="0 0 79 68" fill="none" xmlns="http://www.w3.org/2000/svg">
<path fill-rule="evenodd" clip-rule="evenodd" d="M67.15 67.1255H11.85C7.4023 67.1255 4.2423 65.2962 2.3226 62.7814C0.830417 60.7793 0.0202596 58.3959 0 55.9486V11.2411C0 8.2768 1.24848 5.43392 3.47079 3.33784C5.69309 1.24177 8.70718 0.064209 11.85 0.064209H51.35C54.4928 0.064209 57.5069 1.24177 59.7292 3.33784C61.9515 5.43392 63.2 8.2768 63.2 11.2411V29.8692H75.05C76.0976 29.8692 77.1023 30.2618 77.8431 30.9605C78.5838 31.6591 79 32.6068 79 33.5949V55.9486C79 57.7854 78.447 60.4604 76.6774 62.7814C74.7538 65.3 71.5938 67.1255 67.15 67.1255ZM71.1 41.0461C71.1 40.058 70.6838 39.1104 69.9431 38.4117C69.2023 37.713 68.1976 37.3205 67.15 37.3205C66.1024 37.3205 65.0977 37.713 64.3569 38.4117C63.6162 39.1104 63.2 40.058 63.2 41.0461V55.9486C63.2 56.9367 63.6162 57.8844 64.3569 58.5831C65.0977 59.2818 66.1024 59.6743 67.15 59.6743C68.1976 59.6743 69.2023 59.2818 69.9431 58.5831C70.6838 57.8844 71.1 56.9367 71.1 55.9486V41.0461Z" fill="#008F28"/>
<path d="M38.9038 31.3789C38.9038 32.762 38.4696 34.114 37.6561 35.264C36.8425 36.414 35.6862 37.3104 34.3333 37.8397C32.9805 38.3689 31.4918 38.5074 30.0556 38.2376C28.6194 37.9678 27.3001 37.3017 26.2647 36.3237C25.2292 35.3457 24.5241 34.0997 24.2384 32.7431C23.9527 31.3866 24.0994 29.9805 24.6597 28.7027C25.2201 27.4249 26.1691 26.3327 27.3866 25.5643C28.6042 24.7959 30.0357 24.3857 31.5 24.3857C33.4636 24.3857 35.3468 25.1225 36.7353 26.434C38.1238 27.7454 38.9038 29.5242 38.9038 31.3789ZM49 32.6503C49 35.9195 47.9736 39.1152 46.0507 41.8335C44.1278 44.5517 41.3947 46.6703 38.197 47.9213C34.9993 49.1724 31.4806 49.4997 28.0859 48.8619C24.6913 48.2241 21.5731 46.6499 19.1256 44.3382C16.6782 42.0266 15.0115 39.0814 14.3363 35.875C13.661 32.6687 14.0076 29.3452 15.3321 26.3249C16.6566 23.3046 18.8997 20.7231 21.7775 18.9068C24.6554 17.0906 28.0388 16.1211 31.5 16.1211C36.1386 16.1295 40.5846 17.8737 43.8645 20.9717C47.1445 24.0697 48.9911 28.2691 49 32.6503ZM46.3077 32.6503C46.3086 30.3851 45.7269 28.1536 44.6128 26.1476C43.4986 24.1417 41.8853 22.4213 39.9115 21.1346C37.9377 19.8478 35.6626 19.0331 33.2818 18.7605C30.9009 18.488 28.4856 18.7657 26.2435 19.5698C24.0014 20.3739 21.9997 21.6804 20.4104 23.3768C18.8211 25.0733 17.6919 27.109 17.1198 29.3088C16.5477 31.5086 16.5499 33.8068 17.1261 36.0057C17.7023 38.2046 18.8354 40.2383 20.4279 41.9321C21.5176 40.4557 22.9218 39.2106 24.5505 38.2766C26.4205 39.9688 28.9102 40.9135 31.5 40.9135C34.0898 40.9135 36.5795 39.9688 38.4495 38.2766C40.0782 39.2106 41.4824 40.4557 42.5721 41.9321C44.9828 39.377 46.3126 36.0728 46.3077 32.6503Z" fill="white"/>
</svg>
